<svg xmlns="http://www.w3.org/2000/svg" width="72.24" height="72.24" viewBox="0 0 72.24 72.24">
  <g id="Group_1" data-name="Group 1" transform="translate(-230.33 -2175.87)">
    <g id="Circle-1" transform="translate(233.33 2178.87)" fill="#fff" stroke="#000" stroke-linejoin="round" stroke-width="3">
      <circle cx="33.12" cy="33.12" r="33.12" stroke="none"/>
      <circle cx="33.12" cy="33.12" r="34.62" fill="none"/>
    </g>
    <path id="Icon-Basket" d="M281.7,2231.042H251.2l-1.192-20.651h32.882l-1.192,20.651h0Zm-8.366-13.766v8.26a1.375,1.375,0,0,0,2.75,0v-8.26a1.375,1.375,0,1,0-2.75,0Zm-8.26,0v8.26a1.375,1.375,0,0,0,2.75,0v-8.26a1.375,1.375,0,1,0-2.75,0Zm-8.26,0v8.26a1.375,1.375,0,0,0,2.75,0v-8.26a1.375,1.375,0,1,0-2.75,0Zm-6.2-8.266a3.44,3.44,0,1,1,0-6.88h3.89a2.759,2.759,0,0,1,.27-.644l4.129-7.153a2.753,2.753,0,1,1,4.769,2.753l-2.913,5.044h11.381l-2.912-5.044a2.753,2.753,0,1,1,4.768-2.753l4.13,7.153a2.758,2.758,0,0,1,.27.644h3.885a3.44,3.44,0,1,1,0,6.88Z"/>
  </g>
</svg>
