<svg version="1.1" xmlns="http://www.w3.org/2000/svg" xmlns:xlink="http://www.w3.org/1999/xlink" width="58" height="46"><defs/><g><path fill="rgb(0,0,0)" stroke="none" paint-order="stroke fill markers" fill-rule="evenodd" d=" M 5.539081573486328 44.276118993759155 C 4.982076168060303 44.276118993759155 4.418979167938232 44.12807893753052 3.9079527854919434 43.81864619255066 C 2.4168472290039062 42.916762948036194 1.9394497871398926 40.976277112960815 2.8421740531921387 39.484846115112305 C 2.8421740531921387 39.484846115112305 10.077903747558594 27.530176162719727 10.077903747558594 27.530176162719727 C 10.623143196105957 26.629454016685486 11.58194351196289 26.05877411365509 12.634287357330322 26.011459350585938 C 13.673112869262695 25.963273763656616 14.691827774047852 26.443097710609436 15.317759990692139 27.29157042503357 C 15.317759990692139 27.29157042503357 18.255661010742188 31.275879859924316 18.255661010742188 31.275879859924316 C 18.255661010742188 31.275879859924316 24.682209968566895 20.52207601070404 24.682209968566895 20.52207601070404 C 25.220189571380615 19.621063590049744 26.170061111450195 19.04719066619873 27.21731472015381 18.989716291427612 C 28.27641773223877 18.932822465896606 29.272685527801514 19.399003505706787 29.905794143676758 20.234123587608337 C 29.905794143676758 20.234123587608337 35.478017807006836 27.583006143569946 35.478017807006836 27.583006143569946 C 35.478017807006836 27.583006143569946 50.36028432846069 3.2327390909194946 50.36028432846069 3.2327390909194946 C 51.26918363571167 1.7447913885116577 53.21190166473389 1.2757076025009155 54.698501110076904 2.185718536376953 C 56.185601234436035 3.0948586463928223 56.654654026031494 5.0367958545684814 55.74517059326172 6.524453282356262 C 55.74517059326172 6.524453282356262 38.45063257217407 34.822455167770386 38.45063257217407 34.822455167770386 C 37.90706205368042 35.71330797672272 36.957858085632324 36.277021288871765 35.91611194610596 36.328399896621704 C 34.885130405426025 36.382681250572205 33.87367534637451 35.91475856304169 33.243237018585205 35.08341205120087 C 33.243237018585205 35.08341205120087 27.701387882232666 27.773426294326782 27.701387882232666 27.773426294326782 C 27.701387882232666 27.773426294326782 21.239457607269287 38.5858656167984 21.239457607269287 38.5858656167984 C 20.69763946533203 39.49268352985382 19.738338470458984 40.06858837604523 18.683157444000244 40.119096159935 C 17.63982582092285 40.17831218242645 16.618357181549072 39.69094109535217 15.990756034851074 38.84014618396759 C 15.990756034851074 38.84014618396759 13.035998821258545 34.832324504852295 13.035998821258545 34.832324504852295 C 13.035998821258545 34.832324504852295 8.241663455963135 42.753048062324524 8.241663455963135 42.753048062324524 C 7.648191928863525 43.73359572887421 6.606529235839844 44.276118993759155 5.539081573486328 44.276118993759155 Z"/></g></svg>