<svg xmlns="http://www.w3.org/2000/svg" width="90.46" height="90.46" viewBox="0 0 90.46 90.46">
  <g id="Group_6" data-name="Group 6" transform="translate(-654.46 -2874.33)">
    <g id="Circle-2" transform="translate(657.46 2877.33)" fill="#f9f9f9" stroke="#777" stroke-linejoin="round" stroke-width="3">
      <circle cx="42.23" cy="42.23" r="42.23" stroke="none"/>
      <circle cx="42.23" cy="42.23" r="43.73" fill="none"/>
    </g>
    <path id="Icon-Graph" d="M713.13,2939.14a3.59,3.59,0,0,1-3.59-3.59v-38.72a3.59,3.59,0,0,1,3.59-3.59h.01a3.59,3.59,0,0,1,3.59,3.59v38.72a3.59,3.59,0,0,1-3.59,3.59Zm-13.451,0a3.59,3.59,0,0,1-3.59-3.59v-25.94a3.59,3.59,0,0,1,3.59-3.59h.01a3.59,3.59,0,0,1,3.59,3.59v25.94a3.59,3.59,0,0,1-3.59,3.59Zm-13.459,0a3.59,3.59,0,0,1-3.59-3.59v-13.16a3.59,3.59,0,0,1,3.59-3.59h.01a3.59,3.59,0,0,1,3.59,3.59v13.16a3.59,3.59,0,0,1-3.59,3.59Z" fill="#777"/>
  </g>
</svg>
