<svg version="1.1" xmlns="http://www.w3.org/2000/svg" xmlns:xlink="http://www.w3.org/1999/xlink" width="42" height="54"><defs/><g><path fill="rgb(0,0,0)" stroke="none" paint-order="stroke fill markers" fill-rule="evenodd" d=" M 36.1545524597168 1.7288262844085693 C 36.1545524597168 1.7288262844085693 5.674131870269775 1.7288262844085693 5.674131870269775 1.7288262844085693 C 3.0614218711853027 1.7288262844085693 1.373549461364746 3.3430434465408325 1.373549461364746 5.841437101364136 C 1.373549461364746 5.841437101364136 1.373549461364746 48.277554631233215 1.373549461364746 48.277554631233215 C 1.373549461364746 50.77594828605652 3.0614218711853027 52.39016544818878 5.674131870269775 52.39016544818878 C 5.674131870269775 52.39016544818878 36.1545524597168 52.39016544818878 36.1545524597168 52.39016544818878 C 38.76742935180664 52.39016544818878 40.45521831512451 50.77594828605652 40.45521831512451 48.277554631233215 C 40.45521831512451 48.277554631233215 40.45521831512451 5.841437101364136 40.45521831512451 5.841437101364136 C 40.45521831512451 3.3430434465408325 38.76742935180664 1.7288262844085693 36.1545524597168 1.7288262844085693 Z M 37.170430183410645 48.277554631233215 C 37.170430183410645 48.73763990402222 37.170430183410645 49.10048317909241 36.1545524597168 49.10048317909241 C 36.1545524597168 49.10048317909241 5.674131870269775 49.10048317909241 5.674131870269775 49.10048317909241 C 4.658337593078613 49.10048317909241 4.658337593078613 48.73763990402222 4.658337593078613 48.277554631233215 C 4.658337593078613 48.277554631233215 4.658337593078613 5.841437101364136 4.658337593078613 5.841437101364136 C 4.658337593078613 5.381932377815247 4.658337593078613 5.018798828125 5.674131870269775 5.018798828125 C 5.674131870269775 5.018798828125 36.1545524597168 5.018798828125 36.1545524597168 5.018798828125 C 37.170430183410645 5.018798828125 37.170430183410645 5.381932377815247 37.170430183410645 5.841437101364136 C 37.170430183410645 5.841437101364136 37.170430183410645 48.277554631233215 37.170430183410645 48.277554631233215 Z M 33.96266317367554 7.664071440696716 C 33.96266317367554 7.664071440696716 7.866188049316406 7.664071440696716 7.866188049316406 7.664071440696716 C 7.261451244354248 7.664071440696716 6.771286487579346 8.155506372451782 6.771286487579346 8.760148406028748 C 6.771286487579346 8.760148406028748 6.771286487579346 41.8813533782959 6.771286487579346 41.8813533782959 C 6.771286487579346 42.486575961112976 7.261451244354248 42.9783011674881 7.866188049316406 42.9783011674881 C 7.866188049316406 42.9783011674881 33.96266317367554 42.9783011674881 33.96266317367554 42.9783011674881 C 34.56731653213501 42.9783011674881 35.0575647354126 42.486575961112976 35.0575647354126 41.8813533782959 C 35.0575647354126 41.8813533782959 35.0575647354126 8.760148406028748 35.0575647354126 8.760148406028748 C 35.0575647354126 8.155506372451782 34.56731653213501 7.664071440696716 33.96266317367554 7.664071440696716 Z M 32.86776161193848 40.78498613834381 C 32.86776161193848 40.78498613834381 8.961006164550781 40.78498613834381 8.961006164550781 40.78498613834381 C 8.961006164550781 40.78498613834381 8.961006164550781 9.857096195220947 8.961006164550781 9.857096195220947 C 8.961006164550781 9.857096195220947 32.86776161193848 9.857096195220947 32.86776161193848 9.857096195220947 C 32.86776161193848 9.857096195220947 32.86776161193848 40.78498613834381 32.86776161193848 40.78498613834381 Z M 19.557543754577637 44.743170857429504 C 19.20197820663452 45.0993378162384 18.999370098114014 45.59309494495392 18.999370098114014 46.102526903152466 C 18.999370098114014 46.60702419281006 19.20197820663452 47.100781321525574 19.557543754577637 47.457528829574585 C 19.913609981536865 47.81311523914337 20.40652847290039 48.0221129655838 20.91546869277954 48.0221129655838 C 21.419151782989502 48.0221129655838 21.911986827850342 47.81311523914337 22.267552375793457 47.457528829574585 C 22.623618602752686 47.100781321525574 22.83156728744507 46.60702419281006 22.83156728744507 46.102526903152466 C 22.83156728744507 45.59831988811493 22.623618602752686 45.0993378162384 22.267552375793457 44.743170857429504 C 21.555920600891113 44.03083693981171 20.269676208496094 44.03083693981171 19.557543754577637 44.743170857429504 Z"/></g></svg>