<svg xmlns="http://www.w3.org/2000/svg" width="23.431" height="17.381" viewBox="0 0 23.431 17.381">
  <path id="Twitter_Icon" data-name="Twitter Icon" d="M880.168,4520.328s3.165,1.457,4.479,1.457a4.111,4.111,0,0,0,4.16-1.489s.406-.591-.144-.879c0,0-5.395-1.583-5.012-2.515,0,0-.024-.526.669-.406,0,0,.781-.776.4-1.015,0,0-.6-.778-.12-.826,0,0,1.219.33,1.673.45,0,0,.311-.112.024-.328s-.8-.637-.7-.732c0,0,.2-.469.964-.135,0,0,.239-.047.024-.287,0,0-.551-.383-.24-.694,0,0,.876-.632,3.1,2.069,0,0,.407.55.454.024,0,0,1.612-6.868,4.218-7.322,0,0,.837.167,1-.1,0,0,.724-.287.964-.048,0,0,.239.359.526.144,0,0,1.028-.406.717.263,0,0-1.059.948-1.418.973s-.287.358.024.406c0,0,4.375.385,4.375,3.588,0,0,.251.761,1.064-.027a8.885,8.885,0,0,1,1.541-.821s.335-.215.287.288a5.844,5.844,0,0,1-1.793,1.961s-.55.693.239.55a4.805,4.805,0,0,0,1.126-.374s.932-.455.5.358a12.029,12.029,0,0,1-2.393,1.273s-.287.072-.287.335c0,0-.263,8.364-11.213,8.364a11.963,11.963,0,0,1-9.069-3.889S879.619,4520.208,880.168,4520.328Z" transform="translate(-879.956 -4507.463)" fill="#ececec"/>
</svg>
