<svg xmlns="http://www.w3.org/2000/svg" width="90.46" height="90.46" viewBox="0 0 90.46 90.46">
  <g id="Group_5" data-name="Group 5" transform="translate(-325.34 -2874.33)">
    <g id="Circle-1" transform="translate(328.34 2877.33)" fill="#f9f9f9" stroke="#777" stroke-linejoin="round" stroke-width="3">
      <circle cx="42.23" cy="42.23" r="42.23" stroke="none"/>
      <circle cx="42.23" cy="42.23" r="43.73" fill="none"/>
    </g>
    <path id="Icon-Music" d="M389.633,2898.337a2.05,2.05,0,0,0-2.478-2.021L360.2,2902.08a2.052,2.052,0,0,0-1.621,1.99l-.186,24.155a10.485,10.485,0,0,0-5.285-1.443h-.087c-5.133,0-9.336,3.567-9.369,7.95-.034,4.423,4.153,8.053,9.333,8.094h.086c5.134,0,9.337-3.566,9.372-7.949h0l.162-21.055,22.853-4.886-.1,13.526a10.494,10.494,0,0,0-5.286-1.442h-.087c-5.133,0-9.337,3.567-9.37,7.95-.034,4.423,4.154,8.054,9.334,8.094h.086c4.734,0,8.669-3.034,9.282-6.944a2.033,2.033,0,0,0,.087-.547Zm-36.567,40.387h-.055c-2.87-.022-5.281-1.835-5.265-3.96s2.38-3.88,5.269-3.88h.056c2.871.021,5.282,1.836,5.266,3.961S355.956,2938.724,353.066,2938.724Zm9.557-28.054.038-4.923,22.852-4.887-.038,4.923Zm17.4,22.29h-.054c-2.871-.022-5.282-1.836-5.266-3.961s2.38-3.879,5.27-3.879h.056c2.871.022,5.283,1.836,5.267,3.961S382.916,2932.96,380.025,2932.96Z" fill="#777"/>
  </g>
</svg>
