<svg xmlns="http://www.w3.org/2000/svg" width="18.66" height="29.85" viewBox="0 0 18.66 29.85">
  <path id="iPhone_potrait" data-name="iPhone potrait" d="M248.65,4618.67H233.73a1.872,1.872,0,0,1-1.87-1.87v-26.111a1.872,1.872,0,0,1,1.87-1.87h14.92a1.872,1.872,0,0,1,1.87,1.87V4616.8A1.872,1.872,0,0,1,248.65,4618.67Zm-7.46-2.79a.93.93,0,1,0,.93.931A.932.932,0,0,0,241.19,4615.88Zm-7.471-22.39v21.46H248.65v-21.46H233.72Zm3.265-2.8a.465.465,0,0,0,0,.931h8.4a.465.465,0,0,0,0-.931Z" transform="translate(-231.86 -4588.82)" fill="#ececec"/>
</svg>
