<svg xmlns="http://www.w3.org/2000/svg" width="25.21" height="22.05" viewBox="0 0 25.21 22.05">
  <path id="Photo_Icon" data-name="Photo Icon" d="M546.58,4570.32a1.582,1.582,0,0,1-1.579-1.58v-18.89a1.582,1.582,0,0,1,1.579-1.581h22.05a1.582,1.582,0,0,1,1.581,1.581v18.89a1.582,1.582,0,0,1-1.581,1.58Zm.79-18.11v14.17a1.582,1.582,0,0,0,1.581,1.581h17.32a1.582,1.582,0,0,0,1.579-1.581v-14.17a1.582,1.582,0,0,0-1.579-1.58H548.95A1.582,1.582,0,0,0,547.37,4552.21Zm.783,14.171,4.727-6.3,3.15,3.938h.788l5.514-11.027,4.727,13.39Zm1.577-11.42a2.76,2.76,0,1,1,2.76,2.76A2.759,2.759,0,0,1,549.73,4554.96Z" transform="translate(-545 -4548.27)" fill="#ececec"/>
</svg>
