<svg xmlns="http://www.w3.org/2000/svg" width="90.46" height="90.46" viewBox="0 0 90.46 90.46">
  <g id="Group_7" data-name="Group 7" transform="translate(-986.07 -2874.34)">
    <g id="Circle-3" transform="translate(989.07 2877.34)" fill="#f9f9f9" stroke="#777" stroke-linejoin="round" stroke-width="3">
      <circle cx="42.23" cy="42.23" r="42.23" stroke="none"/>
      <circle cx="42.23" cy="42.23" r="43.73" fill="none"/>
    </g>
    <path id="Icon-Star" d="M1046.254,2943.082a2.168,2.168,0,0,1-1.179-.349L1032.4,2934.5l-12.679,8.232a2.167,2.167,0,0,1-3.264-2.408l3.971-14.1-11.852-10.039a2.169,2.169,0,0,1,1.244-3.818l14.213-1.025,6.4-14.021a2.166,2.166,0,0,1,3.942,0l6.4,14.021,14.213,1.025a2.169,2.169,0,0,1,1.244,3.818l-11.851,10.039,3.971,14.1a2.169,2.169,0,0,1-2.085,2.758Zm-13.858-13.335a2.16,2.16,0,0,1,1.179.35l9.034,5.865-2.789-9.907a2.171,2.171,0,0,1,.686-2.244l8.858-7.5-10.194-.736a2.163,2.163,0,0,1-1.815-1.262l-4.958-10.869-4.958,10.869a2.162,2.162,0,0,1-1.815,1.262l-10.194.736,8.858,7.5a2.171,2.171,0,0,1,.686,2.244l-2.789,9.907,9.034-5.865A2.161,2.161,0,0,1,1032.4,2929.747Z" fill="#777"/>
  </g>
</svg>
