<svg version="1.1" xmlns="http://www.w3.org/2000/svg" xmlns:xlink="http://www.w3.org/1999/xlink" width="58" height="50"><defs/><g><path fill="rgb(0,0,0)" stroke="none" paint-order="stroke fill markers" fill-rule="evenodd" d=" M 53.73491907119751 10.776395916938782 C 51.278337478637695 5.276562690734863 46.06226348876953 1.7227305173873901 40.44723176956177 1.7227305173873901 C 34.75809955596924 1.7227305173873901 31.10472822189331 4.251312732696533 28.985437393188477 6.949415326118469 C 26.866063117980957 4.251312732696533 23.21269178390503 1.7227305173873901 17.5235595703125 1.7227305173873901 C 11.908611297607422 1.7227305173873901 6.692453861236572 5.276562690734863 4.235872268676758 10.776395916938782 C 1.696845531463623 16.46113407611847 2.8162803649902344 22.79057216644287 7.230600357055664 27.706663131713867 C 17.91801118850708 39.61401832103729 27.362152576446533 48.05375289916992 27.455862998962402 48.13764226436615 C 27.8917875289917 48.525739431381226 28.438862800598145 48.71993315219879 28.985437393188477 48.71993315219879 C 29.531928539276123 48.71993315219879 30.07900381088257 48.525739431381226 30.51501178741455 48.13764226436615 C 30.60872220993042 48.05375289916992 40.05278015136719 39.61401832103729 50.74027442932129 27.706663131713867 C 55.15451097488403 22.79057216644287 56.273945808410645 16.46113407611847 53.73491907119751 10.776395916938782 Z M 47.318634033203125 24.639911770820618 C 39.32337427139282 33.54727876186371 32.047423362731934 40.47177982330322 28.985437393188477 43.31008505821228 C 25.92345142364502 40.47177982330322 18.64750051498413 33.54727876186371 10.652240753173828 24.639911770820618 C 7.437631130218506 21.059084057807922 6.629117965698242 16.688709378242493 8.433565139770508 12.648667216300964 C 10.125359535217285 8.860873699188232 13.7782301902771 6.316036105155945 17.5235595703125 6.316036105155945 C 24.93085527420044 6.316036105155945 26.592275142669678 11.8176109790802 26.752742767333984 12.426607131958008 C 27.00466775894165 13.454469561576843 27.926584720611572 14.177253365516663 28.985437393188477 14.177253365516663 C 30.044206619262695 14.177253365516663 30.966123580932617 13.454469561576843 31.218048572540283 12.426607131958008 C 31.278714179992676 12.177261233329773 32.802030086517334 6.316036105155945 40.44723176956177 6.316036105155945 C 44.19264459609985 6.316036105155945 47.84543180465698 8.860873699188232 49.53722620010376 12.648667216300964 C 51.341673374176025 16.688709378242493 50.53316020965576 21.059084057807922 47.318634033203125 24.639911770820618 Z M 40.423115730285645 8.819654703140259 C 39.16232252120972 8.644619107246399 38.006922245025635 9.528505325317383 37.835856914520264 10.784523606300354 C 37.66412401199341 12.041122436523438 38.54506874084473 13.19902789592743 39.80252408981323 13.370580196380615 C 39.92252016067505 13.387125849723816 42.75227451324463 13.818183660507202 43.021055698394775 17.860257744789124 C 43.101831912994385 19.07360565662384 44.11178493499756 20.003645539283752 45.312079429626465 20.003645539283752 C 45.36314868927002 20.003645539283752 45.41471862792969 20.002774715423584 45.466872692108154 19.999581694602966 C 46.7333402633667 19.915111780166626 47.691723346710205 18.821357011795044 47.60752582550049 17.555179119110107 C 47.195717334747314 11.36275064945221 42.728158473968506 9.133151292800903 40.423115730285645 8.819654703140259 Z M 42.530640602111816 20.997255563735962 C 41.927489280700684 20.997255563735962 41.33543634414673 21.244279265403748 40.904518604278564 21.6689510345459 C 40.47919178009033 22.093042254447937 40.232357025146484 22.68491220474243 40.232357025146484 23.294198632240295 C 40.232357025146484 23.896228194236755 40.47919178009033 24.487517595291138 40.904518604278564 24.917704582214355 C 41.33543634414673 25.34295690059662 41.927489280700684 25.590851426124573 42.530640602111816 25.590851426124573 C 43.13379192352295 25.590851426124573 43.725844860076904 25.34295690059662 44.15676259994507 24.917704582214355 C 44.5820894241333 24.487517595291138 44.82892417907715 23.896228194236755 44.82892417907715 23.294198632240295 C 44.82892417907715 22.68491220474243 44.5820894241333 22.093042254447937 44.15676259994507 21.6689510345459 C 43.725844860076904 21.244279265403748 43.13379192352295 20.997255563735962 42.530640602111816 20.997255563735962 Z"/></g></svg>