<svg xmlns="http://www.w3.org/2000/svg" width="31.398" height="31.398" viewBox="0 0 31.398 31.398">
  <g id="Group_1" data-name="Group 1" transform="translate(-529.968 -1470.005)">
    <path id="Circle-1" d="M529.968,1485.7a15.7,15.7,0,1,0,15.7-15.7A15.717,15.717,0,0,0,529.968,1485.7Zm1.256,0a14.443,14.443,0,1,1,14.443,14.443A14.459,14.459,0,0,1,531.224,1485.7Z" fill="#ccc"/>
    <path id="Checkmark-1" d="M543.339,1491.685a1.03,1.03,0,0,1-.73-.3l-4.315-4.313a1.033,1.033,0,1,1,1.461-1.46l3.585,3.583,8.589-8.586a1.033,1.033,0,0,1,1.461,1.46l-9.32,9.317A1.029,1.029,0,0,1,543.339,1491.685Z" fill="#ccc"/>
  </g>
</svg>
