<svg xmlns="http://www.w3.org/2000/svg" width="24.97" height="19.97" viewBox="0 0 24.97 19.97">
  <path id="News_Icon" data-name="News Icon" d="M567.71,4528.2H547.74a2.5,2.5,0,0,1-2.5-2.5v-14.97a2.5,2.5,0,0,1,2.5-2.5H567.71a2.5,2.5,0,0,1,2.5,2.5v14.97A2.5,2.5,0,0,1,567.71,4528.2Zm-19.969-14.98a.832.832,0,0,0-.831.831v8.33a.831.831,0,0,0,.831.83h8.33a.831.831,0,0,0,.83-.83v-8.33a.831.831,0,0,0-.83-.831Zm12.479,7.5a.83.83,0,0,0,0,1.661h7.49a.83.83,0,1,0,0-1.661Zm0-3.33a.83.83,0,0,0,0,1.659h7.49a.83.83,0,1,0,0-1.659Zm0-3.331a.83.83,0,0,0,0,1.661h7.49a.83.83,0,1,0,0-1.661Z" transform="translate(-545.24 -4508.23)" fill="#ececec"/>
</svg>
