<svg xmlns="http://www.w3.org/2000/svg" width="72.24" height="72.24" viewBox="0 0 72.24 72.24">
  <g id="Group_2" data-name="Group 2" transform="translate(-230.35 -2263.48)">
    <g id="Circle-2" transform="translate(233.35 2266.48)" fill="#fff" stroke="#000" stroke-linejoin="round" stroke-width="3">
      <circle cx="33.12" cy="33.12" r="33.12" stroke="none"/>
      <circle cx="33.12" cy="33.12" r="34.62" fill="none"/>
    </g>
    <path id="Icon-Laptop" d="M250.205,2316.82a3.019,3.019,0,0,1-3.015-3.015,2.366,2.366,0,0,1,2.364-2.364h35.631a2.366,2.366,0,0,1,2.364,2.364,3.019,3.019,0,0,1-3.015,3.015Zm11.781-2.021c0,.372.6.673,1.345.673H271.4c.742,0,1.346-.3,1.346-.673s-.6-.672-1.346-.672h-8.072C262.59,2314.127,261.986,2314.428,261.986,2314.8Zm-8.078-6.058H249.88v-2.69h.231a4.036,4.036,0,0,1-.231-1.35v-17.481a4.044,4.044,0,0,1,4.04-4.039h26.9a4.044,4.044,0,0,1,4.04,4.039V2304.7a4.016,4.016,0,0,1-.231,1.35h.231v2.689h-4.04v-21.521H253.91v21.521h0Zm10.419-2.757a1.334,1.334,0,0,1-1.258-.357l-4.736-4.757a1.35,1.35,0,0,1,0-1.9l1.895-1.9a1.334,1.334,0,0,1,1.894,0l2.483,2.494,8-8.038a1.335,1.335,0,0,1,1.895,0l1.895,1.9a1.351,1.351,0,0,1,0,1.9l-10.418,10.464a1.336,1.336,0,0,1-1.65.194Z"/>
  </g>
</svg>
