<svg xmlns="http://www.w3.org/2000/svg" width="72.24" height="72.24" viewBox="0 0 72.24 72.24">
  <g id="Group_4" data-name="Group 4" transform="translate(-230.35 -2351.32)">
    <g id="Group_3" data-name="Group 3">
      <g id="Circle-3" transform="translate(233.35 2354.32)" fill="#fff" stroke="#000" stroke-linejoin="round" stroke-width="3">
        <circle cx="33.12" cy="33.12" r="33.12" stroke="none"/>
        <circle cx="33.12" cy="33.12" r="34.62" fill="none"/>
      </g>
      <path id="Icon-Locked" d="M278.47,2406.1h-21a3.5,3.5,0,0,1-3.5-3.5v-12.83a3.5,3.5,0,0,1,3.5-3.5h1.165v-9.33c0-4.5,4.187-8.167,9.333-8.167s9.333,3.664,9.333,8.167v9.33h1.169a3.5,3.5,0,0,1,3.5,3.5v12.83A3.5,3.5,0,0,1,278.47,2406.1Zm-10.5-16.33a4.671,4.671,0,0,0-2.34,8.712v1.8a2.333,2.333,0,0,0,2.33,2.33h.01a2.333,2.333,0,0,0,2.33-2.33v-1.792a4.671,4.671,0,0,0-2.33-8.718Zm0-16.331c-2.573,0-4.667,1.57-4.667,3.5v8.166a2.713,2.713,0,0,0,.266,1.165h8.8a2.713,2.713,0,0,0,.266-1.165v-8.166C272.634,2375.01,270.541,2373.439,267.968,2373.439Z"/>
    </g>
  </g>
</svg>
